C:\GBW_MyPrograms\KinderuniversiteitApp\Resultaten\Ellis_1010\Kleuter\Kleuter_v3.mot
version=1
nRows=6
nColumns=29
inDegrees=yes
endheader
                time	         pelvis_tilt	           pelvis_tx	           pelvis_ty	       hip_flexion_l	       hip_flexion_r	        knee_angle_l	        knee_angle_r	       ankle_angle_l	       ankle_angle_r	    lumbar_extension	hamstrings_r/activation	bifemsh_r/activation	glut_max_r/activation	iliopsoas_r/activation	rect_fem_r/activation	  vasti_r/activation	gastroc_r/activation	 soleus_r/activation	tib_ant_r/activation	hamstrings_l/activation	bifemsh_l/activation	glut_max_l/activation	iliopsoas_l/activation	rect_fem_l/activation	  vasti_l/activation	gastroc_l/activation	 soleus_l/activation	tib_ant_l/activation	
          2.15413384	          1.35828304	          1.96742509	          0.88969052	        -19.17030472	         24.19395532	        -13.69526959	        -10.78455124	          7.23274063	         -1.52947922	         -7.16553193	          0.10457491	          0.10457492	          0.10457487	          0.10457491	          0.10457491	          0.10457492	          0.10457491	          0.10457491	          0.10457491	          0.10457491	          0.10457493	          0.10459213	          0.10457491	          0.10457491	          0.10457489	          0.10457491	          0.10457491	          0.10457491	
          2.16849473	          1.28898077	          1.98291758	          0.89259340	        -19.04627424	         24.25085636	        -15.65295039	        -12.13232691	          5.99975152	         -2.32073422	         -6.93741323	          0.10457491	          0.10457491	          0.10457488	          0.10457491	          0.10457491	          0.10457493	          0.10457491	          0.10457491	          0.10457491	          0.10457491	          0.10457493	          0.10459750	          0.10457491	          0.10457491	          0.10457489	          0.10457491	          0.10457491	          0.10457491	
          2.18285562	          1.15011742	          1.99827860	          0.89393463	        -18.75683228	         24.29944601	        -17.88630274	        -13.50735121	          4.43995734	         -3.04351130	         -6.69783498	          0.10457491	          0.10457488	          0.10457488	          0.10457491	          0.10457491	          0.10457493	          0.10457491	          0.10457491	          0.10457491	          0.10457491	          0.10457492	          0.10460196	          0.10457491	          0.10457491	          0.10457490	          0.10457491	          0.10457491	          0.10457491	
          2.19721652	          1.05962364	          2.01351666	          0.89535348	        -18.22253043	         24.28263207	        -20.33945017	        -14.97811700	          2.62950599	         -3.59886866	         -6.46135640	          0.10457491	          0.10457487	          0.10457487	          0.10457491	          0.10457491	          0.10457493	          0.10457491	          0.10457491	          0.10457491	          0.10457491	          0.10457491	          0.10460056	          0.10457491	          0.10457491	          0.10457490	          0.10457491	          0.10457491	          0.10457491	
          2.21157741	          0.90971666	          2.02863795	          0.89594729	        -17.48651436	         24.16837327	        -23.02031901	        -16.31421949	          0.52503239	         -4.08715663	         -6.20192631	          0.10457491	          0.10457487	          0.10457487	          0.10457491	          0.10457491	          0.10457493	          0.10457491	          0.10457491	          0.10457491	          0.10457491	          0.10457492	          0.10460223	          0.10457491	          0.10457491	          0.10457490	          0.10457491	          0.10457491	          0.10457491	
          2.22593830	          0.77365911	          2.04364002	          0.89632661	        -16.48633416	         23.95595335	        -25.88523234	        -17.48662272	         -1.69102407	         -4.43553916	         -5.91117243	          0.10457491	          0.10457486	          0.10457488	          0.10457491	          0.10457491	          0.10457493	          0.10457491	          0.10457491	          0.10457491	          0.10457491	          0.10457492	          0.10460406	          0.10457491	          0.10457491	          0.10457490	          0.10457491	          0.10457491	          0.10457491	
